{"title":"Blackhat.2015.HDRip.XVID.AC3-5.1.HQ.Hive-CM8","uid":11795382,"size":1901082711,"categoryP":"video","categoryS":"movies","magnet":"?xt=urn:btih:9f5580c6ddf338f259c26c00ddacc0e8efee41da&amp;dn=Blackhat.2015.HDRip.XVID.AC3-5.1.HQ.Hive-CM8&amp;tr=udp%3A%2F%2Ftracker.openbittorrent.com%3A80&amp;tr=udp%3A%2F%2Fopen.demonii.com%3A1337&amp;tr=udp%3A%2F%2Ftracker.coppersurfer.tk%3A6969&amp;tr=udp%3A%2F%2Fexodus.desync.com%3A6969","seeders":18,"leechers":3,"uploader":"xxxlavalxxx","files":4,"time":1428147540,"description":" &lt;a href=&quot;http://extraimago.com/image/aWa&quot; rel=&quot;nofollow&quot; target=&quot;_NEW&quot;&gt;http://extraimago.com/image/aWa&lt;/a&gt;\n &lt;a href=&quot;\nhttp://www.imdb.com/title/tt2717822/&quot; rel=&quot;nofollow&quot; target=&quot;_NEW&quot;&gt;\nhttp://www.imdb.com/title/tt2717822/&lt;/a&gt;\n\n\nA furloughed convict and his American and Chinese partners hunt a high-level cybercrime network from Chicago to Los Angeles to Hong Kong to Jakarta.\n\nDirector: Michael Mann\nWriter: Morgan Davis Foehl\nStars: Chris Hemsworth, Viola Davis, Wei Tang\nGenres: Action | Crime | Drama | Mystery | Thriller\nCountry: USA\nLanguage: English | Mandarin | Spanish\n\n\nGeneral\nComplete name: Blackhat.2015.HDRip.XVID.AC3-5.1.HQ.Hive-CM8.avi\nFormat: AVI\nFormat/Info: Audio Video Interleave\nFile size: 1.76 GiB\nDuration: 2h 12mn\nOverall bit rate: 1 893 Kbps\nWriting application: Nandub v1.0rc2\nWriting library: Nandub build 1853/release\nSources: Video: Russian 1080p Web-dl\nAudio: MrSeen-Simple-Jiinx Line Audio\nand the Russian 5.1 Track \n\nVideo\nID: 0\nFormat: MPEG-4 Visual\nFormat profile: Advanced Simple@L5\nFormat settings, BVOP: 2\nFormat settings, QPel: Yes\nFormat settings, GMC: No warppoints\nFormat settings, Matrix: Default (H.263)\nMuxing mode: Packed bitstream\nCodec ID: XVID\nCodec ID/Hint: XviD\nDuration: 2h 12mn\nBit rate: 1 500 Kbps\nWidth: 720 pixels\nHeight: 304 pixels\nDisplay aspect ratio: 2.35:1\nFrame rate: 23.976 fps\nColor space: YUV\nChroma subsampling: 4:2:0\nBit depth: 8 bits\nScan type: Progressive\nCompression mode: Lossy\nBits/(Pixel*Frame): 0.286\nStream size: 1.39 GiB (79%)\nWriting library: XviD 1.2.1 (UTC 2008-12-04)\n\nAudio\nID: 1\nFormat: AC-3\nFormat/Info: Audio Coding 3\nMode extension: CM (complete main)\nFormat settings, Endianness: Big\nCodec ID: 2000\nDuration: 2h 12mn\nBit rate mode: Constant\nBit rate: 384 Kbps\nChannel(s): 6 channels\nChannel positions: Front: L C R, Side: L R, LFE\nSampling rate: 48.0 KHz\nBit depth: 16 bits\nCompression mode: Lossy\nDelay relative to video: 50ms\nStream size: 365 MiB (20%)\nAlignment: Split accross interleaves\nInterleave, duration: 42 ms (1.00 video frame)\nInterleave, preload duration: 500 ms \n\n\nVideo was already nice, did the usual added bit brightness and sharpness\n\nFor the Audio i took sweet line from jiinx, removed noise and hiss, and raised the vocals till it sounded perfect and clear\nTook me 2hrs to resync the audio to my video, as usual all is lipsync\nCleaned the Russian Audiotrack from voice and entered the line into the 5.1 track\nAudio sounds now retailish with all the music and soundeffects inside\n\nWhat took most of the time were the subs that are so needed in this movie for that foreign parts\nFound a guy who speaks chinese to translate me the text, and than i had to retime each sub which wasnt funny at all\nwhen i thought it was done i noticed there are still some other foreign subs needed which i also translated\nalong with onscreen text subs, what a pita to do\ni do think i got them all now, its not gonna get better than this\n\nhope you appreciate the hours of work\nthis will do me till retail in may\nenjoy\n\nVideo: 720x304 @bitrate 1500 2pass\nAudio: English AC3 5.1 @384\nSample: yes included\nSubs: yes hardcoded for all foreign parts only\n &lt;a href=&quot;\nhttp://extraimago.com/image/aWw&quot; rel=&quot;nofollow&quot; target=&quot;_NEW&quot;&gt;\nhttp://extraimago.com/image/aWw&lt;/a&gt; &lt;a href=&quot;\nhttp://extraimago.com/image/aW2&quot; rel=&quot;nofollow&quot; target=&quot;_NEW&quot;&gt;\nhttp://extraimago.com/image/aW2&lt;/a&gt; &lt;a href=&quot;\nhttp://extraimago.com/image/aWN&quot; rel=&quot;nofollow&quot; target=&quot;_NEW&quot;&gt;\nhttp://extraimago.com/image/aWN&lt;/a&gt; &lt;a href=&quot;\nhttp://extraimago.com/image/aWT&quot; rel=&quot;nofollow&quot; target=&quot;_NEW&quot;&gt;\nhttp://extraimago.com/image/aWT&lt;/a&gt; &lt;a href=&quot;\nhttp://extraimago.com/image/aWj&quot; rel=&quot;nofollow&quot; target=&quot;_NEW&quot;&gt;\nhttp://extraimago.com/image/aWj&lt;/a&gt; &lt;a href=&quot;\nhttp://extraimago.com/image/aWn&quot; rel=&quot;nofollow&quot; target=&quot;_NEW&quot;&gt;\nhttp://extraimago.com/image/aWn&lt;/a&gt;","torrent":{"xt":"urn:btih:9f5580c6ddf338f259c26c00ddacc0e8efee41da","amp;dn":"Blackhat.2015.HDRip.XVID.AC3-5.1.HQ.Hive-CM8","amp;tr":["udp%3A%2F%2Ftracker.openbittorrent.com%3A80","udp%3A%2F%2Fopen.demonii.com%3A1337","udp%3A%2F%2Ftracker.coppersurfer.tk%3A6969","udp%3A%2F%2Fexodus.desync.com%3A6969"],"infoHash":"9f5580c6ddf338f259c26c00ddacc0e8efee41da","infoHashBuffer":{"type":"Buffer","data":[159,85,128,198,221,243,56,242,89,194,108,0,221,172,192,232,239,238,65,218]},"announce":[],"urlList":[]}}